# xmcd CD database file
#
# Track frame offsets:
#	150
#	6898
#	20589
#	28837
#	38283
#	47881
#	54030
#	61529
#	70227
#	79195
#	87590
#
# Disc length: 1251 seconds
#
# Revision: 0
# Processed by: cddbd v1.5.1PL0 Copyright (c) Steve Scherf et al.
# Submitted via: CDex 1.51
#
DISCID=7e04e10b
DTITLE=The Flame - Pump Up the Jam
DYEAR=2005
DGENRE=bedroompop
TTITLE0=See How I Smile #1
TTITLE1=You Love the Streets At Dawn
TTITLE2=Picnic Jamboree
TTITLE3=When We Were Kids
TTITLE4=Leak In Heart
TTITLE5=Poppy/Love!
TTITLE6=The Flame
TTITLE7=Sometimes
TTITLE8=Loverboy
TTITLE9=I Don't Like Others Having Fun
TTITLE10=See How I Smile #2
EXTD=YEAR: 2005
EXTT0=
EXTT1=
EXTT2=
EXTT3=
EXTT4=
EXTT5=
EXTT6=
EXTT7=
EXTT8=
EXTT9=
EXTT10=
PLAYORDER=
